<svg width="64" height="63" viewBox="0 0 64 63" fill="none" xmlns="http://www.w3.org/2000/svg">
<g clip-path="url(#clip0_1_27)">
<path d="M49.7099 63H14.2901C5.2093 63 0 58.9936 0 51.9955L1.92248 7.78344C1.92248 5.39193 2.54264 3.59168 3.80952 2.32974C6.17497 -0.0264739 10.3034 -0.0176493 15.0963 2.70084e-07H16.2126H48.9125C53.6877 -0.0176493 57.8339 -0.0264739 60.1993 2.32974C61.4662 3.59168 62.0864 5.38311 62.0864 7.81874L64.0089 51.9602C64.0089 58.9936 58.7996 63 49.7187 63M14.0155 1.76495C10.0819 1.76495 6.75083 1.89733 5.05869 3.57403C4.13732 4.48298 3.69435 5.86847 3.69435 7.80992L1.77187 52.0308C1.77187 60.0349 9.6124 61.2351 14.2901 61.2351H49.7099C54.3876 61.2351 62.2281 60.0349 62.2281 51.9955L60.3056 7.85404C60.3056 5.87729 59.8538 4.49181 58.9413 3.57403C57.0986 1.73848 53.3068 1.7473 48.9125 1.76495H47.7874H15.0875C14.7243 1.76495 14.3699 1.76495 14.0155 1.76495Z" fill="#E8E2D4"/>
<path d="M46.2458 55.8166C42.9856 55.8166 40.1329 54.8106 37.6877 52.7897C35.2425 50.7689 33.3466 47.9273 32.0089 44.265C30.6622 40.6027 29.9889 36.2698 29.9889 31.2661C29.9889 26.2625 30.7242 22.2119 32.2038 18.5938C33.6833 14.9756 35.6589 12.1605 38.1484 10.1661C40.6379 8.17173 43.402 7.17453 46.4408 7.17453C48.2481 7.17453 49.8339 7.3422 51.1982 7.66872C52.5626 7.99524 53.7763 8.42765 54.8306 8.94831C55.3621 9.25718 55.6279 9.71607 55.6279 10.3338L55.8228 20.3411C55.8228 21.0912 55.557 21.4618 55.0343 21.4618C54.5471 21.4618 54.237 21.1794 54.113 20.6058L53.4485 18.1702C52.5271 14.7462 51.4551 12.3811 50.2414 11.0574C49.0277 9.74254 47.5836 9.08068 45.9092 9.08068C42.8261 9.08068 40.2569 10.978 38.2104 14.7727C36.1639 18.5673 35.1362 24.0651 35.1362 31.2573C35.1362 36.1727 35.6501 40.3204 36.6866 43.7002C37.7231 47.0801 39.0609 49.6217 40.7176 51.3337C42.3654 53.0457 44.1196 53.9017 45.9712 53.9017C47.9557 53.9017 49.5504 53.2839 50.7641 52.0573C51.9778 50.8307 52.9967 48.4568 53.8383 44.9445L54.6357 41.7235C54.7685 41.0616 55.1229 40.7792 55.6899 40.8675C56.1772 40.9557 56.4164 41.3264 56.4164 41.9882L56.1506 52.6486C56.1506 53.2663 55.8671 53.7252 55.2913 54.034C54.237 54.5635 52.9878 54.9871 51.5615 55.3136C50.1262 55.6401 48.3544 55.8078 46.2458 55.8078" fill="#E8E2D4"/>
<path d="M12.4385 55.3313C11.0122 55.0048 9.76301 54.5723 8.70875 54.0429C8.13289 53.734 7.84939 53.2751 7.84939 52.6574L7.58361 41.9971C7.58361 41.3352 7.83167 40.9646 8.31008 40.8763C8.88594 40.7881 9.23145 41.0705 9.36434 41.7323L10.1617 44.9622C10.9945 48.4744 12.0221 50.8395 13.2359 52.0749C14.4496 53.3016 16.0443 53.9193 18.0288 53.9193C19.8804 53.9193 21.6346 53.0633 23.2824 51.3513C24.9302 49.6393 26.2769 47.0978 27.3134 43.7179C28.3499 40.338 28.8638 36.1904 28.8638 31.275C28.8638 24.0828 27.8361 18.585 25.7896 14.7903C23.7431 10.9957 21.1739 9.09833 18.0908 9.09833C16.4164 9.09833 14.9723 9.76019 13.7586 11.0751C12.5448 12.39 11.4817 14.7638 10.5515 18.1878L9.88704 20.6235C9.75415 21.1971 9.44408 21.4795 8.96567 21.4795C8.43411 21.4795 8.16833 21.1088 8.16833 20.3587L8.36323 10.3514C8.36323 9.73371 8.62901 9.27483 9.16058 8.96596C10.2148 8.43647 11.4286 8.01288 12.7929 7.67754C14.1573 7.35103 15.7431 7.18336 17.5504 7.18336C20.5891 7.18336 23.3533 8.18056 25.8427 10.175C28.3322 12.1693 30.3167 14.9844 31.7874 18.6026C33.2669 22.2208 34.0022 26.4478 34.0022 31.275C34.0022 36.1021 33.3289 40.6116 31.9823 44.2738C30.6357 47.9361 28.7398 50.7777 26.2946 52.7986C23.8494 54.8194 20.9967 55.8255 17.7364 55.8255C15.619 55.8255 13.8472 55.6578 12.4208 55.3313" fill="#E8E2D4"/>
</g>
<defs>
<clipPath id="clip0_1_27">
<rect width="64" height="63" fill="white"/>
</clipPath>
</defs>
</svg>
