<svg width="177" height="132" viewBox="0 0 177 132" fill="none" xmlns="http://www.w3.org/2000/svg">
<g clip-path="url(#clip0_14_65)">
<path d="M15.5477 104.407C12.4293 104.407 9.70061 103.438 7.36734 101.5C5.0285 99.5622 3.21869 96.8335 1.93233 93.3197C0.645966 89.8003 0.00556946 85.6405 0.00556946 80.8403C0.00556946 76.0401 0.71279 72.1532 2.12166 68.6784C3.53053 65.2035 5.42945 62.5083 7.80727 60.5927C10.1851 58.677 12.8302 57.7192 15.737 57.7192C17.4633 57.7192 18.9836 57.8752 20.2866 58.1926C21.5897 58.51 22.7536 58.9221 23.7615 59.4232C24.2682 59.7184 24.5188 60.1583 24.5188 60.7486L24.7082 70.3545C24.7082 71.0729 24.4576 71.4293 23.9508 71.4293C23.4886 71.4293 23.1935 71.1564 23.0654 70.6051L22.4306 68.2663C21.5452 64.9808 20.5261 62.7032 19.3678 61.4391C18.2095 60.175 16.8285 59.5458 15.2303 59.5458C12.2789 59.5458 9.82869 61.3667 7.86852 65.0142C5.90835 68.6561 4.92827 73.9352 4.92827 80.8459C4.92827 85.5626 5.42388 89.5442 6.4151 92.7907C7.40632 96.0372 8.68712 98.4763 10.2686 100.119C11.8501 101.762 13.5207 102.586 15.2916 102.586C17.1849 102.586 18.7163 101.996 19.8746 100.815C21.0328 99.6346 22.0129 97.3626 22.8148 93.9879L23.5722 90.8918C23.7002 90.2569 24.0344 89.9841 24.5857 90.0732C25.0479 90.1567 25.2817 90.5131 25.2817 91.1479L25.0311 101.383C25.0311 101.973 24.7583 102.413 24.2126 102.708C23.1991 103.215 22.0129 103.622 20.643 103.939C19.2731 104.257 17.5803 104.412 15.5533 104.412" fill="#E8E2D4"/>
<path d="M26.8577 103.839C26.2228 103.839 25.911 103.627 25.911 103.204C25.911 102.781 26.2061 102.508 26.7964 102.385L27.7431 102.196C28.584 102.029 29.2188 101.617 29.6364 100.965C30.0597 100.314 30.416 99.3948 30.7112 98.2143L40.5065 58.7213C40.59 58.3037 40.7292 58.0252 40.9185 57.9027C41.1079 57.7746 41.2861 57.7134 41.4531 57.7134C41.6647 57.7134 41.8652 57.7746 42.0546 57.9027C42.2439 58.0308 42.3831 58.3037 42.4666 58.7213L52.4513 98.7878C52.7464 99.9684 53.0861 100.787 53.4647 101.255C53.8434 101.717 54.4337 102.034 55.2356 102.201L56.1823 102.391C56.7725 102.519 57.0677 102.792 57.0677 103.209C57.0677 103.627 56.7503 103.844 56.121 103.844H45.3122C44.7219 103.844 44.4268 103.61 44.4268 103.148C44.4268 102.686 44.7832 102.43 45.5016 102.391L46.7044 102.263C47.4172 102.179 47.8738 101.945 48.0631 101.567C48.2525 101.188 48.2413 100.536 48.0297 99.6064L45.6296 89.8112C45.379 88.7141 44.683 88.1684 43.547 88.1684H36.9091C35.8121 88.1684 35.116 88.7141 34.8264 89.8112L32.6769 98.2811C32.0477 100.681 32.6769 102.007 34.5703 102.263L35.5169 102.391C36.2353 102.519 36.5917 102.769 36.5917 103.148C36.5917 103.61 36.2966 103.844 35.7063 103.844H26.8577V103.839ZM36.7142 86.2695H43.6639C44.3377 86.2695 44.6106 85.9131 44.4825 85.1947L40.4396 68.2604H40.1222L35.89 85.1947C35.762 85.9131 36.0348 86.2695 36.7142 86.2695Z" fill="#E8E2D4"/>
<path d="M83.7304 104.407C80.0662 104.407 77.7274 102.007 76.7139 97.2008L75.2605 90.1843C74.7983 87.9123 74.2804 86.1804 73.7124 84.9999C73.1444 83.8193 72.3648 83.023 71.3736 82.5998C70.3823 82.1766 69.0236 81.965 67.2973 81.965C66.707 81.965 66.2448 82.1209 65.9051 82.4383C65.5654 82.7557 65.3984 83.1455 65.3984 83.6077V99.406C65.3984 100.291 65.5654 100.893 65.9051 101.205C66.2393 101.522 67.0022 101.784 68.1771 101.995L70.516 102.374C70.9782 102.458 71.2121 102.692 71.2121 103.07C71.2121 103.577 70.8947 103.828 70.2654 103.828H57.4352C56.8004 103.828 56.4885 103.594 56.4885 103.131C56.4885 102.753 56.7614 102.502 57.3071 102.374L58.7605 102.124C59.646 101.956 60.2251 101.723 60.498 101.427C60.7708 101.132 60.91 100.542 60.91 99.6566V62.5025C60.91 61.6171 60.7708 61.0268 60.498 60.7316C60.2251 60.4365 59.646 60.2082 58.7605 60.0356L57.3071 59.785C56.7614 59.6569 56.4885 59.4063 56.4885 59.0276C56.4885 58.5654 56.8059 58.3315 57.4352 58.3315H70.2654C72.749 58.3315 74.9598 58.816 76.9032 59.785C78.8411 60.7539 80.3558 62.0904 81.4528 63.8C82.5499 65.504 83.0956 67.4753 83.0956 69.7083C83.0956 72.3646 82.2937 74.7535 80.6955 76.8808C79.0917 79.008 77.0703 80.5115 74.6312 81.3969C74.3361 81.4805 74.1802 81.6197 74.1579 81.809C74.1356 81.9984 74.2748 82.1543 74.57 82.2824C75.9176 82.9172 76.9812 83.797 77.7608 84.9386C78.5404 86.0746 79.1418 87.5949 79.5595 89.4882L80.9517 95.9312C81.4139 98.1197 81.9652 99.6789 82.5944 100.609C83.2237 101.539 84.0256 102.001 84.9945 102.001C85.3342 102.001 85.6349 101.951 85.9133 101.845C86.1862 101.739 86.5315 101.539 86.9547 101.244C87.2888 101.032 87.6062 100.982 87.9014 101.088C88.1965 101.194 88.3413 101.416 88.3413 101.75C88.3413 102.469 87.8791 103.087 86.9491 103.616C86.0191 104.139 84.95 104.407 83.7249 104.407M69.6361 80.3946C72.4984 80.3946 74.6702 79.4368 76.1459 77.5212C77.6216 75.6055 78.3567 73.044 78.3567 69.842C78.3567 66.64 77.5047 64.29 75.7951 62.5415C74.0911 60.7929 71.7411 59.9186 68.7507 59.9186C66.5177 59.9186 65.404 60.7595 65.404 62.4468V76.9197C65.404 79.2363 66.8128 80.3946 69.6361 80.3946Z" fill="#E8E2D4"/>
<path d="M103.822 104.407C101.55 104.407 99.5343 103.872 97.7858 102.798C96.0372 101.723 94.6784 100.23 93.7095 98.3093C92.7405 96.3936 92.2561 94.194 92.2561 91.7048V62.5083C92.2561 61.6229 92.1168 61.0326 91.844 60.7375C91.5711 60.4424 90.992 60.214 90.1066 60.0414L88.6531 59.7908C88.1074 59.6627 87.829 59.4122 87.829 59.0335C87.829 58.5713 88.1464 58.3374 88.7757 58.3374H100.342C100.977 58.3374 101.288 58.588 101.288 59.0947C101.288 59.4734 101.055 59.7073 100.592 59.7908L98.8883 60.0414C98.0475 60.1695 97.4739 60.3978 97.1843 60.7375C96.8892 61.0772 96.7444 61.6842 96.7444 62.5696V91.7661C96.7444 94.9681 97.4628 97.4517 98.8939 99.2225C100.325 100.993 102.324 101.879 104.897 101.879C107.47 101.879 109.53 100.993 110.961 99.2225C112.392 97.4517 113.111 94.9681 113.111 91.7661V63.8337C113.111 61.5617 112.392 60.2976 110.961 60.0414L109.257 59.7908C108.795 59.7073 108.561 59.4734 108.561 59.0947C108.561 58.588 108.879 58.3374 109.508 58.3374H118.607C119.236 58.3374 119.554 58.5713 119.554 59.0335C119.554 59.4122 119.281 59.6683 118.729 59.7908L117.276 60.0414C115.845 60.292 115.127 61.5394 115.127 63.7724V91.7048C115.127 95.5416 114.096 98.6155 112.03 100.932C109.964 103.249 107.23 104.407 103.817 104.407" fill="#E8E2D4"/>
<path d="M131.309 104.407C130.468 104.407 129.527 104.323 128.497 104.156C127.461 103.989 126.492 103.777 125.59 103.527C124.682 103.276 123.981 103.003 123.474 102.708C123.179 102.541 122.956 102.363 122.811 102.168C122.661 101.979 122.589 101.65 122.589 101.188L122.271 91.2646C122.271 90.4237 122.544 90.0005 123.095 90.0005C123.558 90.0005 123.875 90.3792 124.042 91.1365L124.61 93.5366C126.041 99.5619 128.72 102.575 132.634 102.575C134.739 102.575 136.416 101.867 137.657 100.458C138.899 99.0496 139.523 97.056 139.523 94.4888C139.523 91.9217 138.882 89.6886 137.596 87.5391C136.31 85.3896 134.255 83.2624 131.437 81.1575C128.319 78.9244 126.041 76.7638 124.61 74.6811C123.179 72.5984 122.46 70.3765 122.46 68.0154C122.46 64.897 123.546 62.4022 125.713 60.5256C127.884 58.6545 130.652 57.7134 134.021 57.7134C135.285 57.7134 136.505 57.8637 137.685 58.1533C138.866 58.4484 139.835 58.8717 140.592 59.4174C140.843 59.5844 141.043 59.7738 141.193 59.9854C141.338 60.197 141.416 60.4699 141.416 60.804L141.606 70.3487C141.606 71.067 141.333 71.4234 140.781 71.4234C140.403 71.4234 140.13 71.1283 139.963 70.538L139.517 68.9565C138.593 65.7156 137.63 63.3433 136.644 61.8453C135.653 60.3529 134.233 59.6012 132.378 59.6012C130.524 59.6012 129.126 60.1914 128.051 61.372C126.977 62.5525 126.442 64.2176 126.442 66.3671C126.442 68.1769 127.032 69.9032 128.213 71.5459C129.393 73.1887 131.459 75.1878 134.405 77.549C137.563 80.1217 139.874 82.5942 141.322 84.972C142.775 87.3554 143.504 89.8891 143.504 92.5899C143.504 94.951 142.975 97.0114 141.923 98.7823C140.871 100.553 139.428 101.934 137.596 102.92C135.764 103.911 133.665 104.407 131.309 104.407Z" fill="#E8E2D4"/>
<path d="M162.466 104.407C160.444 104.407 158.545 103.805 156.78 102.608C155.009 101.411 153.461 99.7568 152.136 97.6463C150.811 95.5413 149.775 93.0633 149.04 90.2232C148.305 87.3777 147.932 84.3149 147.932 81.0294C147.932 77.7439 148.299 74.6867 149.04 71.8689C149.775 69.0456 150.811 66.5731 152.136 64.4459C153.461 62.3187 155.009 60.6648 156.78 59.4842C158.551 58.3037 160.444 57.7134 162.466 57.7134C164.487 57.7134 166.375 58.3037 168.124 59.4842C169.872 60.6648 171.42 62.3187 172.768 64.4459C174.115 66.5731 175.157 69.0512 175.897 71.8689C176.632 74.6922 177.006 77.7439 177.006 81.0294C177.006 84.3149 176.638 87.3777 175.897 90.2232C175.162 93.0688 174.115 95.5413 172.768 97.6463C171.42 99.7512 169.872 101.405 168.124 102.608C166.375 103.811 164.493 104.407 162.466 104.407ZM162.466 102.703C165.456 102.703 167.795 100.915 169.482 97.3344C171.164 93.7538 172.01 88.3188 172.01 81.0294C172.01 73.74 171.164 68.3161 169.482 64.7577C167.795 61.1994 165.456 59.4174 162.466 59.4174C159.475 59.4174 157.187 61.1994 155.483 64.7577C153.779 68.3161 152.921 73.74 152.921 81.0294C152.921 88.3188 153.773 93.7538 155.483 97.3344C157.187 100.915 159.514 102.703 162.466 102.703Z" fill="#E8E2D4"/>
<path d="M57.6747 131.22H56.2825L56.0597 130.218L55.5753 128.842L53.3645 128.825L51.3988 128.842L50.8976 130.14L50.6359 131.214H49.2604L52.8244 121.965H54.4226L57.6691 131.214L57.6747 131.22ZM55.1855 127.706L53.6429 123.324H53.5316L51.8443 127.706L53.4759 127.723L55.1855 127.706Z" fill="#E8E2D4"/>
<path d="M65.1422 131.22H63.4883L60.2585 121.97H61.6841L61.9068 122.989L64.3069 129.844H64.396L67.0523 123.045L67.275 121.97H68.6672L65.1422 131.22Z" fill="#E8E2D4"/>
<path d="M76.2796 131.22H74.6312L71.3958 121.97H72.827L73.0497 122.989L75.4443 129.844H75.5389L78.1952 123.045L78.4179 121.97H79.8101L76.2796 131.22Z" fill="#E8E2D4"/>
<path d="M90.1623 123.046C90.8862 123.836 91.2481 124.956 91.2481 126.409C91.2481 127.979 90.8583 129.199 90.0899 130.056C89.3158 130.92 88.2132 131.348 86.7765 131.348C85.44 131.348 84.4043 130.942 83.6748 130.134C82.9453 129.321 82.5777 128.169 82.5777 126.671C82.5777 125.173 82.9675 123.948 83.7472 123.112C84.5268 122.277 85.6294 121.859 87.0549 121.859C88.4026 121.859 89.4439 122.255 90.1623 123.046ZM84.7384 123.864C84.265 124.421 84.0256 125.301 84.0256 126.498C84.0256 127.784 84.2595 128.72 84.7328 129.305C85.2006 129.889 85.9189 130.179 86.8879 130.179C87.8568 130.179 88.6142 129.895 89.0986 129.327C89.5831 128.759 89.8226 127.868 89.8226 126.654C89.8226 125.44 89.5831 124.488 89.1098 123.909C88.6309 123.324 87.9069 123.034 86.9269 123.034C85.9468 123.034 85.2228 123.313 84.7439 123.87" fill="#E8E2D4"/>
<path d="M101.89 122.527L101.628 123.808L101.461 123.864C101.149 123.602 100.793 123.401 100.386 123.251C99.9798 123.101 99.5399 123.028 99.0665 123.028C98.1477 123.028 97.4516 123.324 96.9672 123.908C96.4827 124.499 96.2432 125.373 96.2432 126.537C96.2432 127.701 96.4827 128.608 96.9672 129.226C97.4516 129.844 98.1477 130.156 99.0665 130.156C99.512 130.156 99.9631 130.078 100.414 129.922C100.865 129.766 101.272 129.56 101.628 129.299L101.795 129.354L101.667 130.635C100.826 131.092 99.9408 131.32 99.0109 131.32C97.6521 131.32 96.6052 130.914 95.8701 130.106C95.1406 129.293 94.7731 128.14 94.7731 126.642C94.7731 125.144 95.1573 123.942 95.9314 123.112C96.7054 122.282 97.7969 121.87 99.2113 121.87C100.242 121.87 101.133 122.087 101.884 122.522" fill="#E8E2D4"/>
<path d="M113.233 131.22H111.841L111.618 130.218L111.134 128.842L108.923 128.825L106.957 128.842L106.456 130.14L106.194 131.214H104.819L108.383 121.965H109.981L113.233 131.214V131.22ZM110.744 127.706L109.201 123.324H109.09L107.403 127.706L109.034 127.723L110.744 127.706Z" fill="#E8E2D4"/>
<path d="M122.221 122.082L122.126 123.251L120.4 123.123H119.476L119.42 128.318L119.476 131.214H118.078L118.134 128.43L118.1 123.123H117.17L115.405 123.251L115.294 123.123L115.405 121.97H122.149L122.221 122.082Z" fill="#E8E2D4"/>
<path d="M127.678 128.318L127.717 131.214H126.342L126.398 128.43L126.342 121.97H127.734L127.678 128.318Z" fill="#E8E2D4"/>
<path d="M99.6345 39.7546H77.371C71.6631 39.7546 68.3888 37.2264 68.3888 32.8104L69.5972 4.91142C69.5972 3.40231 69.987 2.2663 70.7833 1.46998C72.2646 -0.0168511 74.8596 -0.0112825 77.8722 -0.000145165H78.5739H99.1278C102.129 -0.0112825 104.735 -0.0168511 106.222 1.46998C107.019 2.2663 107.408 3.39674 107.408 4.93369L108.617 32.7882C108.617 37.2264 105.342 39.7546 99.6345 39.7546ZM77.1984 1.11359C74.7259 1.11359 72.6321 1.19712 71.5685 2.25516C70.9893 2.82874 70.7109 3.70302 70.7109 4.92812L69.5025 32.8271C69.5025 37.8779 74.4308 38.6352 77.371 38.6352H99.6345C102.575 38.6352 107.503 37.8779 107.503 32.8049L106.295 4.9504C106.295 3.70302 106.011 2.82874 105.437 2.2496C104.279 1.09131 101.895 1.09688 99.1334 1.10802H98.4261H77.8722C77.6439 1.10802 77.4211 1.10802 77.1984 1.10802" fill="#E8E2D4"/>
<path d="M97.4516 35.2218C95.4024 35.2218 93.6092 34.587 92.0723 33.3118C90.5353 32.0365 89.3436 30.2434 88.5028 27.9324C87.6563 25.6214 87.2331 22.8872 87.2331 19.7298C87.2331 16.5724 87.6953 14.0163 88.6253 11.7332C89.5553 9.45004 90.7971 7.67364 92.3619 6.41512C93.9267 5.1566 95.6641 4.52734 97.5741 4.52734C98.7101 4.52734 99.7069 4.63315 100.565 4.83919C101.422 5.04523 102.185 5.31809 102.848 5.64665C103.182 5.84155 103.349 6.13112 103.349 6.52093L103.471 12.8358C103.471 13.3091 103.304 13.543 102.976 13.543C102.669 13.543 102.475 13.3648 102.397 13.0029L101.979 11.4659C101.4 9.30526 100.726 7.81286 99.9631 6.97756C99.2002 6.14782 98.2925 5.73018 97.24 5.73018C95.3021 5.73018 93.6872 6.92744 92.4008 9.32196C91.1145 11.7165 90.4685 15.1858 90.4685 19.7242C90.4685 22.826 90.7915 25.4432 91.443 27.576C92.0946 29.7088 92.9354 31.3126 93.9768 32.3929C95.0125 33.4733 96.1151 34.0134 97.279 34.0134C98.5264 34.0134 99.5287 33.6236 100.292 32.8496C101.055 32.0755 101.695 30.5776 102.224 28.3612L102.725 26.3287C102.809 25.911 103.031 25.7328 103.388 25.7885C103.694 25.8442 103.844 26.0781 103.844 26.4957L103.677 33.2227C103.677 33.6125 103.499 33.902 103.137 34.0969C102.475 34.4311 101.689 34.6984 100.793 34.9044C99.8907 35.1104 98.777 35.2163 97.4516 35.2163" fill="#E8E2D4"/>
<path d="M76.2072 34.9158C75.3106 34.7098 74.5254 34.4369 73.8628 34.1028C73.5008 33.9079 73.3226 33.6183 73.3226 33.2285L73.1555 26.5016C73.1555 26.0839 73.3115 25.85 73.6122 25.7944C73.9741 25.7387 74.1913 25.9169 74.2749 26.3345L74.776 28.3727C75.2995 30.589 75.9455 32.0814 76.7084 32.861C77.4713 33.635 78.4736 34.0248 79.721 34.0248C80.8849 34.0248 81.9875 33.4847 83.0232 32.4044C84.059 31.324 84.9054 29.7203 85.557 27.5875C86.2085 25.4547 86.5315 22.8374 86.5315 19.7357C86.5315 15.1972 85.8855 11.7279 84.5992 9.33339C83.3128 6.93887 81.6979 5.7416 79.76 5.7416C78.7075 5.7416 77.7998 6.15925 77.0369 6.98898C76.274 7.81871 75.6058 9.31669 75.0211 11.4773L74.6034 13.0143C74.5199 13.3762 74.325 13.5544 74.0243 13.5544C73.6901 13.5544 73.5231 13.3206 73.5231 12.8472L73.6456 6.53235C73.6456 6.14255 73.8126 5.85298 74.1468 5.65807C74.8094 5.32395 75.5724 5.05666 76.4299 4.84505C77.2875 4.63901 78.2843 4.5332 79.4203 4.5332C81.3303 4.5332 83.0678 5.16246 84.6326 6.42098C86.1974 7.6795 87.4447 9.4559 88.3691 11.7391C89.2991 14.0222 89.7613 16.6896 89.7613 19.7357C89.7613 22.7817 89.3381 25.6273 88.4917 27.9383C87.6452 30.2493 86.4535 32.0424 84.9166 33.3176C83.3796 34.5929 81.5865 35.2277 79.5372 35.2277C78.2063 35.2277 77.0926 35.1219 76.196 34.9158" fill="#E8E2D4"/>
</g>
<defs>
<clipPath id="clip0_14_65">
<rect width="177" height="131.348" fill="white"/>
</clipPath>
</defs>
</svg>
